<svg width="843" height="844" viewBox="0 0 843 844" fill="none" xmlns="http://www.w3.org/2000/svg">
<g clip-path="url(#clip0_63_679)">
<path d="M738.352 286.183L735.033 278.6C731.522 270.945 727.505 263.168 722.982 255.268C676.415 174.112 589.525 109.076 507.725 88.0371L498.446 85.7828C583.386 104.99 675.019 172.32 723.711 256.947C729.161 266.379 734.055 276.121 738.368 286.124" fill="white"/>
<path d="M762.415 372.045L761.469 365.783C756.969 338.174 746.055 308.243 728.288 277.298C662.566 162.774 526.749 76.2441 418.091 77.2768L411.157 77.4124C521.542 74.1449 661.243 162.268 728.396 279.289C747.079 311.804 758.226 343.252 762.415 372.045Z" fill="white"/>
<path d="M764.929 447.927L765.338 441.927C767.691 401.155 755.237 353.161 726.341 302.829C650.46 170.409 489.432 71.8266 366.94 82.7283C358.037 83.4882 349.202 84.9055 340.507 86.9686L334.342 88.5092C344.058 85.9869 353.969 84.2889 363.97 83.4332C487.293 72.4975 649.322 171.723 725.846 305.072C755.613 356.899 768.049 406.281 764.936 447.897" fill="white"/>
<path d="M751.866 518.789L753.355 513.137C766.974 463.592 755.976 399.494 716.869 331.346C635.442 189.459 463.056 83.8984 331.827 95.5364C311.324 97.0903 291.267 102.312 272.609 110.952L267.186 113.637C286.587 104.352 307.566 98.809 329.021 97.2975C460.838 85.5926 634.012 191.646 715.809 334.169C755.711 403.506 766.507 468.849 751.866 518.789Z" fill="white"/>
<path d="M724.944 584.482L727.628 579.334C755.452 525.24 748.194 447.064 699.978 363.036C615.079 215.108 435.372 105.024 298.591 117.194C263.591 120.317 234.805 131.089 212.771 147.943L208.086 151.551C230.427 133.892 260.015 122.603 295.899 119.364C432.999 107.184 613.127 217.474 698.222 365.738C747.128 450.992 753.987 530.202 724.944 584.482Z" fill="white"/>
<path d="M685.277 643.052L689.053 638.445C732.928 584.084 731.361 494.275 675.328 396.67C589.108 246.431 406.594 134.627 267.696 146.904C220.971 151.053 185.113 168.728 161.396 196.057L157.546 200.581C181.26 172.302 217.593 154.024 265.217 149.827C404.16 137.499 586.712 249.281 672.909 399.609C729.522 498.252 730.656 588.866 685.261 643.111" fill="white"/>
<path d="M634.576 692.45L639.195 688.73C700.349 638.572 706.117 539.777 643.727 431.226C558.465 282.632 377.94 172.048 240.424 184.245C183.006 189.344 142.178 215.077 120.362 254.172L117.521 259.31C139.023 219.246 180.134 192.796 238.392 187.634C375.5 175.424 555.642 285.781 640.737 434.046C703.489 543.388 697.052 642.799 634.369 692.396" fill="white"/>
<path d="M575.293 730.221L580.597 727.504C659.744 686.168 674.294 581.299 607.411 464.698C525.243 321.539 351.429 215.033 218.907 226.773C152.088 232.718 108.621 267.63 92.5047 319.207L90.7793 324.796C106.24 272.224 149.829 236.49 217.353 230.51C349.178 218.775 522.374 324.866 604.311 467.457C671.559 584.598 656.148 689.967 575.411 730.252" fill="white"/>
<path d="M507.926 755.547L514.003 753.983C611.975 726.718 636.953 618.426 567.017 496.59C489.934 362.365 326.762 262.428 202.578 273.39C127.816 280.059 84.1952 325.404 78.1617 389.763L77.6091 395.947C82.5867 330.55 126.011 284.267 201.442 277.584C324.802 266.626 486.891 365.868 563.458 499.291C633.603 621.531 607.62 730.033 507.864 755.783" fill="white"/>
<path d="M431.795 766.57L438.777 766.257C441.146 766.153 443.53 765.99 445.864 765.782C558.925 755.72 593.843 648.495 523.558 526.187C453.272 403.879 304.818 312.944 191.765 322.977C110.329 330.23 69.4865 387.858 79.2334 465.234L80.0965 471.569C68.8031 393.216 109.236 334.5 191.088 327.229C303.109 317.272 450.288 407.397 519.802 528.552C589.315 649.707 554.847 755.943 442.856 765.908C439.192 766.24 435.53 766.447 431.795 766.57Z" fill="white"/>
<path d="M344.564 758.342L344.86 758.42L352.018 759.957C370.918 763.979 390.298 765.257 409.563 763.753C508.884 754.913 539.423 660.711 477.658 553.274C415.892 445.837 285.566 365.974 186.244 374.814C98.2032 382.637 64.1979 457.92 100.81 549.84L104.002 557.547C64.2667 464.267 97.2568 387.071 186.144 379.281C284.226 370.462 413.123 449.38 473.808 555.393C534.493 661.407 504.511 754.457 406.431 763.149C385.633 764.737 364.715 763.102 344.416 758.303" fill="white"/>
<path d="M130.597 605.437C79.838 517.006 104.987 439.423 186.78 432.137C268.572 424.851 376.011 490.68 426.763 579.141C477.514 667.601 452.373 745.155 370.58 752.441C288.788 759.727 181.348 693.898 130.597 605.437L129.345 604.063C180.961 694.049 290.285 761.134 373.557 753.636C456.829 746.139 482.372 667.299 430.735 577.275C379.098 487.252 269.764 420.323 186.516 427.732C103.267 435.141 77.7001 514.07 129.345 604.063L130.597 605.437Z" fill="white"/>
<path d="M149.369 619.59C109.978 550.957 129.513 490.724 192.996 485.071C256.478 479.418 339.883 530.53 379.274 599.164C418.665 667.797 399.122 728.06 335.677 733.691C272.232 739.322 188.789 688.358 149.369 619.59L147.541 618.603C187.935 688.956 273.447 741.319 338.511 735.545C403.576 729.771 423.606 668.023 383.22 597.64C342.833 527.257 257.322 474.893 192.249 480.697C127.176 486.5 107.155 548.22 147.541 618.603L149.369 619.59Z" fill="white"/>
<path d="M174.885 629.286C147.922 582.311 161.281 541.084 204.729 537.243C248.177 533.402 305.279 568.314 332.234 615.318C359.19 662.322 345.839 703.52 302.383 707.391C258.927 711.261 201.848 676.26 174.885 629.286L172.518 628.662C200.541 677.498 259.889 713.856 305.091 709.845C350.293 705.833 364.147 662.963 336.124 614.128C308.101 565.292 248.731 528.896 203.559 532.915C158.386 536.935 144.583 579.85 172.471 628.84L174.838 629.463" fill="white"/>
<path d="M207.094 633.876C193.474 610.132 200.215 589.344 222.198 587.223C244.181 585.101 272.964 602.935 286.592 626.651C300.219 650.366 293.462 671.213 271.526 673.157C249.59 675.1 220.76 657.444 207.133 633.728L204.203 633.558C218.956 659.247 250.209 678.396 273.996 676.275C297.782 674.154 305.08 651.615 290.423 625.92C275.767 600.224 244.446 581.089 220.668 583.18C196.889 585.272 189.576 607.871 204.233 633.566L207.162 633.736" fill="white"/>
<path d="M242.306 633.309C242.66 633.945 243.172 634.479 243.793 634.858C244.414 635.238 245.122 635.451 245.849 635.476C247.046 635.38 247.438 634.249 246.527 632.902C246.176 632.264 245.664 631.729 245.043 631.349C244.422 630.969 243.712 630.757 242.984 630.735C241.788 630.831 241.425 631.969 242.306 633.309Z" fill="white"/>
<path d="M556.161 217.248C542.607 193.615 549.333 172.887 571.172 170.949C593.012 169.012 621.739 186.578 635.293 210.211C648.847 233.844 642.122 254.572 620.282 256.509C598.443 258.447 569.723 240.851 556.161 217.248C557.397 216.962 558.632 216.717 559.867 216.515C572.273 238.137 598.57 254.24 618.567 252.45C638.564 250.66 644.732 231.684 632.326 210.062C619.919 188.44 593.623 172.337 573.597 174.12C553.57 175.902 547.468 194.864 559.867 216.515C558.627 216.737 557.392 216.981 556.161 217.248Z" fill="white"/>
<path d="M510.54 228.618C483.642 181.756 496.978 140.617 540.329 136.782C583.681 132.947 640.643 167.791 667.556 214.594C694.469 261.397 681.126 302.566 637.767 306.43C594.407 310.295 537.491 275.399 510.54 228.618L514.414 227.486C540.251 272.487 595.003 305.989 636.52 302.273C678.037 298.556 691.084 259.113 664.972 214.072C638.861 169.031 584.383 135.569 542.896 139.293C501.409 143.018 488.488 182.462 514.296 227.455L510.422 228.587" fill="white"/>
<path d="M463.532 244.654C424.184 176.095 443.621 115.994 507.074 110.334C570.527 104.673 653.762 155.709 693.117 224.238C732.473 292.767 713.028 352.898 649.538 358.58C586.048 364.263 502.88 313.213 463.532 244.654L467.47 243.159C505.823 309.969 587.003 359.673 648.791 354.206C710.578 348.74 729.582 290.044 691.214 223.294C652.846 156.544 571.71 106.788 509.923 112.255C448.135 117.721 429.102 176.409 467.462 243.189L463.524 244.683" fill="white"/>
<path d="M415.982 264.788C365.275 176.402 390.408 98.8775 472.126 91.6352C553.843 84.3929 661.188 150.102 711.925 238.496C762.663 326.889 737.507 404.376 655.79 411.618C574.072 418.861 466.727 353.152 415.982 264.788L419.984 262.93C469.903 349.748 575.184 414.28 655.429 407.22C735.675 400.159 760.369 323.943 710.561 237.187C660.753 150.43 555.332 85.8294 475.116 92.8975C394.9 99.9657 370.177 176.174 419.984 262.93L415.982 264.788Z" fill="white"/>
<path d="M738.352 286.183C778.324 379.526 745.245 456.698 656.394 464.593C558.403 473.309 429.645 394.46 368.856 288.482L372.594 286.303C432.607 390.905 559.67 468.737 656.398 460.132C745.897 452.06 778.019 373.117 734.893 278.532L738.212 286.115" fill="white"/>
<path d="M368.856 288.482C308.147 182.558 338.181 89.5521 436.202 80.8445C457.091 79.2437 478.101 80.9126 498.475 85.7907L507.755 88.0449C485.445 81.9792 462.266 79.7479 439.208 81.4464C342.48 90.0515 312.744 181.806 372.764 286.379L369.025 288.559" fill="white"/>
<path d="M762.415 372.045C773.789 450.451 733.37 509.234 651.57 516.55C539.616 526.492 392.555 436.399 323.048 315.341L326.786 313.161C395.618 433.06 541.295 522.283 652.178 512.438C734.483 505.128 774.477 445.315 761.548 365.962L762.494 372.224" fill="white"/>
<path d="M322.959 315.317C253.578 194.26 287.89 88.0149 399.873 78.0798C403.596 77.7628 407.362 77.5207 411.157 77.4125L418.091 77.2769C412.954 77.3163 407.891 77.5545 402.903 77.9916C292.011 87.8662 257.913 193.06 326.707 312.982L322.968 315.161" fill="white"/>
<path d="M764.929 447.927C759.995 513.398 716.495 559.725 641.124 566.424C517.793 577.389 355.771 478.134 279.278 344.793L282.828 342.247C358.71 474.667 519.738 573.25 642.221 562.377C718.143 555.634 761.513 508.355 765.368 441.935L764.958 447.935" fill="white"/>
<path d="M279.278 344.793C209.263 222.778 235.028 114.502 334.364 88.5466L340.529 87.0059C239.394 111.38 212.558 219.88 282.791 342.269L279.24 344.814" fill="white"/>
<path d="M751.866 518.789C736.449 571.436 692.89 607.178 625.328 613.18C493.443 625.025 320.312 519.047 238.539 376.435L241.779 373.744C323.205 515.632 495.584 621.222 626.821 609.555C694.889 603.432 738.71 566.937 753.473 513.168L751.984 518.82" fill="white"/>
<path d="M238.539 376.435C171.267 259.383 186.669 154.17 267.273 113.787L272.696 111.101C190.456 150.484 174.382 256.09 241.779 373.744L238.539 376.435Z" fill="white"/>
<path d="M724.944 584.482C703.456 624.612 662.307 651.084 604.041 656.275C466.919 668.418 286.822 558.01 201.757 409.753C202.704 408.8 203.673 407.885 204.65 406.939C289.519 554.86 469.235 664.914 606.045 652.752C665.113 647.519 706.516 620.323 727.66 579.216L724.975 584.363" fill="white"/>
<path d="M201.757 409.753C139.065 300.426 145.472 201.008 208.117 151.433L212.802 147.825C148.605 196.802 141.486 296.76 204.68 406.947C203.703 407.892 202.734 408.808 201.787 409.761" fill="white"/>
<path d="M685.277 643.052C661.577 671.398 625.198 689.727 577.47 693.96C438.519 706.317 256.006 594.513 169.779 444.178L172.25 441.285C258.47 591.523 440.992 703.298 579.882 691.051C628.487 686.733 665.415 667.757 689.045 638.475L685.269 643.081" fill="white"/>
<path d="M169.756 444.267C113.128 345.556 112.063 254.802 157.554 200.551L161.404 196.027C114.603 249.965 115.042 341.535 172.258 441.255L169.787 444.148" fill="white"/>
<path d="M634.576 692.45C612.235 710.11 582.64 721.428 546.763 724.637C409.626 736.839 229.476 626.512 144.389 478.218C144.98 477.297 145.6 476.385 146.204 475.531C231.466 624.125 411.999 734.68 549.515 722.482C586.55 719.199 616.798 707.324 639.268 688.813L634.649 692.533" fill="white"/>
<path d="M144.389 478.218C95.4318 392.92 88.5886 313.65 117.728 259.364L120.569 254.226C90.1581 308.652 96.5727 388.948 146.22 475.472C145.6 476.385 144.98 477.297 144.405 478.159" fill="white"/>
<path d="M575.293 730.221C555.958 739.558 535.038 745.17 513.626 746.763C381.772 758.49 208.576 652.399 126.668 509.816C127.08 508.975 127.462 508.126 127.873 507.285C210.033 650.473 383.973 756.981 516.369 745.239C538.709 743.599 560.506 737.564 580.508 727.481L575.204 730.198" fill="white"/>
<path d="M126.757 509.839C86.8505 440.279 76.0621 374.907 90.7793 324.796L92.5047 319.207C76.7127 369.793 87.2407 436.394 127.962 507.308C127.55 508.149 127.168 508.998 126.757 509.839Z" fill="white"/>
<path d="M507.927 755.547C498.349 758 488.587 759.662 478.738 760.517C355.378 771.474 193.297 672.204 116.73 538.78C116.925 538.04 117.127 537.27 117.33 536.501C194.443 670.734 357.585 770.663 481.769 759.701C492.693 758.779 503.509 756.85 514.078 753.939L508.001 755.503" fill="white"/>
<path d="M116.737 538.75C86.8159 486.788 74.5134 437.377 77.6714 395.71L78.2241 389.526C74.2388 432.052 86.6718 482.889 117.317 536.308C117.115 537.077 116.912 537.847 116.717 538.587" fill="white"/>
<path d="M431.795 766.57C321.341 769.978 181.443 681.645 114.142 564.585C114.098 563.909 114.084 563.241 114.071 562.573C182.785 682.315 326.652 772.041 438.776 766.257L431.795 766.57Z" fill="white"/>
<path d="M114.142 564.585C95.4231 531.965 84.2322 500.442 80.0965 471.569L79.2334 465.234C83.0199 495.313 94.4443 528.353 114.071 562.572C114.084 563.241 114.098 563.909 114.142 564.585Z" fill="white"/>
<path d="M344.868 758.39L344.572 758.312C259.513 739.074 167.45 671.693 118.827 586.926L118.144 585.196C168.394 672.796 264.448 742.082 352.034 759.898L344.876 758.361" fill="white"/>
<path d="M118.819 586.956C113.305 577.418 108.368 567.558 104.033 557.429L100.81 549.84C105.741 562.063 111.52 573.927 118.105 585.344L118.788 587.074" fill="white"/>
</g>
<defs>
<clipPath id="clip0_63_679">
<rect width="689" height="690" fill="white" transform="translate(176 0.634521) rotate(14.7556)"/>
</clipPath>
</defs>
</svg>
